<svg width="16" height="16" viewBox="0 0 16 16" fill="none" xmlns="http://www.w3.org/2000/svg">
<path d="M4.3634 8.72718C4.3634 7.76276 4.74652 6.83784 5.42847 6.15589C6.11042 5.47394 7.03534 5.09082 7.99977 5.09082C8.96419 5.09082 9.88911 5.47394 10.5711 6.15589C11.253 6.83784 11.6361 7.76276 11.6361 8.72718V12.3635C11.6361 13.7352 11.6361 14.4203 11.2099 14.8465C10.7838 15.2726 10.0987 15.2726 8.72704 15.2726H7.27249C5.90086 15.2726 5.21577 15.2726 4.78959 14.8465C4.3634 14.4203 4.3634 13.7352 4.3634 12.3635V8.72718Z" stroke="white" stroke-width="1.2" stroke-linecap="round" stroke-linejoin="round"/>
<path d="M6.54522 5.09118V4.3639C6.54522 3.67808 6.54522 3.33554 6.75831 3.12245C6.9714 2.90936 7.31395 2.90936 7.99977 2.90936M7.99977 2.90936C8.68559 2.90936 9.02813 2.90936 9.24122 3.12245C9.45431 3.33554 9.45431 3.67808 9.45431 4.3639V5.09118M7.99977 2.90936V0.727539M7.99977 0.727539H6.54522M7.99977 0.727539H9.99613C10.5468 0.727679 11.077 0.936036 11.4805 1.31081L11.6361 1.45481M4.3634 8.72754H11.6361" stroke="white" stroke-width="1.2" stroke-linecap="round" stroke-linejoin="round"/>
<rect x="4.00012" y="9" width="8" height="6" rx="1" fill="white"/>
</svg>
