<svg width="105" height="20" viewBox="0 0 105 20" fill="none" xmlns="http://www.w3.org/2000/svg">
<path d="M0.339976 18.772L0.339309 1.22433L5.14024 0.499572L7.92032 0.499749L7.92012 3.5648L3.48286 3.56452L3.48254 8.50727L7.91995 6.27089L7.91973 9.69492L3.48232 11.9589L3.48232 19.3959L0.339976 18.772Z" fill="white"/>
<path d="M9.49132 3.12309C9.49143 1.43869 10.4286 0.499908 12.0271 0.500009L15.5273 0.500231C17.1258 0.500333 18.0904 1.43924 18.0902 3.12364L18.0902 3.59306L14.9206 5.24965L14.9207 3.53763L12.6332 3.53749L12.6329 8.36979L18.0901 5.55359L18.0894 17.0407C18.0893 18.7251 17.1246 19.6638 15.5261 19.6637L12.0259 19.6635C10.4273 19.6634 9.49033 18.7245 9.49044 17.0401L9.49055 15.2453L12.6326 13.6163L12.6324 16.6261L14.9199 16.6263L14.9203 10.6066L9.49067 13.4504L9.49132 3.12309Z" fill="white"/>
<path d="M28.9095 0.501081L28.9085 16.5995L31.196 16.5997L31.197 0.501226L34.3665 0.501427L34.3654 16.9865C34.3653 18.8089 33.4833 19.6649 31.6092 19.6648L29.1563 19.6646C28.0263 19.6645 27.3649 19.0018 27.365 17.8144C27.3649 19.0018 26.6759 19.6644 25.5459 19.6644L22.9 19.6642C21.3015 19.6641 20.3645 18.7252 20.3646 17.0408L20.3657 0.500539L23.5076 0.500738L23.5066 16.5992L25.8217 16.5993L25.8227 0.500885L28.9095 0.501081Z" fill="white"/>
<path d="M47.6796 7.32271L47.6798 3.45688L45.1442 3.45671L45.1439 8.56514L47.6796 7.32271ZM50.7111 9.47673L50.7106 17.0151C50.7105 18.81 49.801 19.6659 47.8993 19.6658L42.1115 19.6654L42.1128 0.501919L48.1485 0.502302C49.7471 0.502403 50.7116 1.44131 50.7115 3.12571L50.7113 7.15723C50.7112 8.39982 50.3253 9.14535 49.3607 9.47664L50.7111 9.47673ZM47.679 16.6836L47.6794 10.5258L45.1437 11.7959L45.1434 16.6834L47.679 16.6836Z" fill="white"/>
<path d="M61.584 19.6667L58.4421 19.6665L58.4426 11.5482L56.1274 12.7354L56.127 19.6663L52.9851 19.6661L52.9861 3.12585C52.9862 1.44145 53.9234 0.502668 55.5219 0.50277L59.0221 0.502992C60.6206 0.503093 61.5852 1.442 61.5851 3.1264L61.584 19.6667ZM58.4428 8.1794L58.4431 3.5404L56.128 3.54025L56.1277 9.31139L58.4428 8.1794Z" fill="white"/>
<path d="M69.3702 8.23532L69.3705 3.54109L67.0554 3.54094L67.055 9.39493L69.3702 8.23532ZM72.512 10.0028L70.1968 11.19L73.7792 19.6674L70.4995 19.6672L67.5234 12.5705L67.0548 12.819L67.0544 19.667L63.9125 19.6668L63.9137 0.503302L69.9495 0.503685C71.548 0.503787 72.5125 1.44269 72.5124 3.12709L72.512 10.0028Z" fill="white"/>
<path d="M80.3271 7.32478L80.3274 3.45895L77.7918 3.45879L77.7915 8.56721L80.3271 7.32478ZM83.3587 9.4788L83.3582 17.0172C83.3581 18.812 82.4485 19.668 80.5468 19.6679L74.7591 19.6675L74.7603 0.503991L80.7961 0.504374C82.3946 0.504475 83.3592 1.44338 83.3591 3.12778L83.3588 7.1593C83.3587 8.40189 82.9728 9.14742 82.0082 9.47871L83.3587 9.4788ZM80.3265 16.6856L80.3269 10.5279L77.7913 11.7979L77.7909 16.6855L80.3265 16.6856Z" fill="white"/>
<path d="M93.2118 19.6687L85.6326 19.6682L85.6339 0.504681L93.213 0.505162L93.2128 3.57022L88.7756 3.56994L88.7753 8.51268L93.2127 6.2763L93.2124 9.70033L88.775 11.9643L88.7747 16.6033L93.212 16.6036L93.2118 19.6687Z" fill="white"/>
<path d="M100.591 8.2373L100.592 3.54307L98.2765 3.54292L98.2761 9.39691L100.591 8.2373ZM103.733 10.0047L101.418 11.192L105 19.6694L101.721 19.6692L98.7444 12.5724L98.2759 12.8209L98.2754 19.669L95.1335 19.6688L95.1347 0.505284L101.171 0.505667C102.769 0.505768 103.734 1.44468 103.733 3.12907L103.733 10.0047Z" fill="white"/>
<path d="M0.339976 18.772L0.339309 1.22433L5.14024 0.499572L7.92032 0.499749L7.92012 3.5648L3.48286 3.56452L3.48254 8.50727L7.91995 6.27089L7.91973 9.69492L3.48232 11.9589L3.48232 19.3959L0.339976 18.772Z" fill="#8162FF"/>
<path d="M9.49132 3.12309C9.49143 1.43869 10.4286 0.499908 12.0271 0.500009L15.5273 0.500231C17.1258 0.500333 18.0904 1.43924 18.0902 3.12364L18.0902 3.59306L14.9206 5.24965L14.9207 3.53763L12.6332 3.53749L12.6329 8.36979L18.0901 5.55359L18.0894 17.0407C18.0893 18.7251 17.1246 19.6638 15.5261 19.6637L12.0259 19.6635C10.4273 19.6634 9.49033 18.7245 9.49044 17.0401L9.49055 15.2453L12.6326 13.6163L12.6324 16.6261L14.9199 16.6263L14.9203 10.6066L9.49067 13.4504L9.49132 3.12309Z" fill="#8162FF"/>
<path d="M28.9095 0.501081L28.9085 16.5995L31.196 16.5997L31.197 0.501226L34.3665 0.501427L34.3654 16.9865C34.3653 18.8089 33.4833 19.6649 31.6092 19.6648L29.1563 19.6646C28.0263 19.6645 27.3649 19.0018 27.365 17.8144C27.3649 19.0018 26.6759 19.6644 25.5459 19.6644L22.9 19.6642C21.3015 19.6641 20.3645 18.7252 20.3646 17.0408L20.3657 0.500539L23.5076 0.500738L23.5066 16.5992L25.8217 16.5993L25.8227 0.500885L28.9095 0.501081Z" fill="#8162FF"/>
</svg>
