<svg width="16" height="16" viewBox="0 0 16 16" fill="none" xmlns="http://www.w3.org/2000/svg">
<g clip-path="url(#clip0_7555_5453)">
<path d="M13.045 6.08091C14.2836 6.63946 15.3512 7.478 15.9272 8.66564C15.9872 8.7893 16.0109 8.92742 15.9956 9.064C15.9803 9.20058 15.9266 9.33003 15.8408 9.43734C15.7549 9.54466 15.6404 9.62546 15.5105 9.67037C15.3806 9.71528 15.2407 9.72246 15.1069 9.6911C10.7745 8.67582 6.39196 10.4213 4.08141 11.374C2.63123 11.9718 1.22323 11.4838 0.495229 10.5005C0.116631 9.99942 -0.0544787 9.37176 0.0174105 8.74782C0.264683 6.70782 2.82905 5.8351 4.52068 5.4511C7.2705 4.82782 10.4465 4.9071 13.045 6.08019V6.08091Z" fill="white"/>
</g>
<defs>
<clipPath id="clip0_7555_5453">
<rect width="16" height="16" fill="white"/>
</clipPath>
</defs>
</svg>
